<svg version="1.1" preserveAspectRatio="none" xmlns="http://www.w3.org/2000/svg" width="500" height="500" viewBox="0 0 500 500"><rect width="100%" height="100%" fill="#F7F7F7" fill-opacity="1"/><svg viewBox="553.6603 380.2043 337.657 237.9466" width="333" height="234.66481607074635" x="83.5px" y="132.6676px" xmlns="http://www.w3.org/2000/svg" xmlns:xlink="http://www.w3.org/1999/xlink" preserveAspectRatio="none"><defs></defs><style>.companyName {fill:#2B2B2B;fill-opacity:1;}.icon1 {fill:#2B2B2B;fill-opacity:1;}.icon2 {fill:#59C65B;fill-opacity:1;}.icon3 {fill:#6D6D6D;fill-opacity:1;}.icon3-str {stroke:#6D6D6D;stroke-opacity:1;}</style><g opacity="1" transform="rotate(0 654.9574 380.2043)">
<svg width="135.0628" height="111.4466" x="654.9574" y="380.2043" version="1.1" preserveAspectRatio="none" viewBox="4.917176723480225 12.800003051757812 90.1656494140625 74.39999389648438">
  <g transform="matrix(1 0 0 1 0 0)" class="icon1"><path d="M48.5,59.9c-1.4-2.4-1.2-6.6-1.1-8c0-0.3,0-0.7,0-1C46.3,31.6,26.5,32.5,24,32.7c-0.2,0-0.3,0-0.3,0  c-8.1,0.2-17.2,5.8-18.6,16c-1.4,10.2,5.7,19.4,5.7,19.4c3,6.6,1.3,13.1-0.1,16.6c-0.5,1.2,0.4,2.5,1.7,2.5H30  c1.1,0,1.9-0.9,1.9-1.9c0-0.6,0-1,0-1c0.5-3.9,4.8-3.9,9.8-3.1c5,0.8,6.3-0.8,6.9-1.5c0.6-0.8-0.1-3.9-0.1-3.9s0.8-1,1.2-1.9  c0.4-0.9-0.5-1.7-0.5-1.7l0.7-1.3c0.2-0.3,0.2-0.7-0.1-1c-0.6-0.7-1-2-1-2s2.6-2,3-2.8C52.4,64.2,50,62.4,48.5,59.9z M36.5,58.6  c0,0,1.2-1.8,3.3-1.8c3,0,3.6,1.8,3.6,1.8C40.4,61.5,36.5,58.6,36.5,58.6z"></path><path d="M51.5,40.1c1.4,2.4,1.2,6.6,1.1,8c0,0.3,0,0.7,0,1C53.7,68.4,73.5,67.5,76,67.3c0.2,0,0.3,0,0.3,0  c8.1-0.2,17.2-5.8,18.6-16c1.4-10.2-5.7-19.4-5.7-19.4c-3-6.6-1.3-13.1,0.1-16.6c0.5-1.2-0.4-2.5-1.7-2.5H70c-1.1,0-1.9,0.9-1.9,1.9  c0,0.6,0,1,0,1c-0.5,3.9-4.8,3.9-9.8,3.1c-5-0.8-6.3,0.8-6.9,1.5s0.1,3.9,0.1,3.9s-0.8,1-1.2,1.9c-0.4,0.9,0.5,1.7,0.5,1.7L50,29.2  c-0.2,0.3-0.2,0.7,0.1,1c0.6,0.7,1,2,1,2s-2.6,2-3,2.8C47.6,35.8,50,37.6,51.5,40.1z M63.5,41.4c0,0-1.2,1.8-3.3,1.8  c-3,0-3.6-1.8-3.6-1.8C59.6,38.5,63.5,41.4,63.5,41.4z"></path></g>
</svg>
</g><g opacity="1" transform="rotate(0 610.7532 595.6509)">
<svg width="223.4712" height="22.5" x="610.7532" y="595.6509" version="1.1" preserveAspectRatio="none" viewBox="2.5391 -28.4375 363.0734 36.5625">
  <g transform="matrix(1 0 0 1 0 0)" class="companyName"><path id="id-6izo4zJp17" d="M19.65-16.91L19.65-12.32L8.40-12.32L8.40-4.71L21.60-4.71L21.60 0L2.54 0L2.54-28.44L21.56-28.44L21.56-23.69L8.40-23.69L8.40-16.91L19.65-16.91Z M25.47-21.13L30.76-21.13L30.94-18.77Q33.18-21.52 37.01-21.52L37.01-21.52Q41.09-21.52 42.62-18.30L42.62-18.30Q44.84-21.52 48.96-21.52L48.96-21.52Q52.40-21.52 54.08-19.52Q55.76-17.52 55.76-13.50L55.76-13.50L55.76 0L50.10 0L50.10-13.48Q50.10-15.27 49.39-16.10Q48.69-16.93 46.91-16.93L46.91-16.93Q44.37-16.93 43.40-14.51L43.40-14.51L43.42 0L37.77 0L37.77-13.46Q37.77-15.29 37.05-16.11Q36.33-16.93 34.59-16.93L34.59-16.93Q32.19-16.93 31.11-14.94L31.11-14.94L31.11 0L25.47 0L25.47-21.13Z M79.92-10.66L79.92-10.37Q79.92-5.49 77.70-2.55Q75.49 0.39 71.72 0.39L71.72 0.39Q68.51 0.39 66.54-1.84L66.54-1.84L66.54 8.13L60.90 8.13L60.90-21.13L66.13-21.13L66.33-19.06Q68.38-21.52 71.68-21.52L71.68-21.52Q75.58-21.52 77.75-18.63Q79.92-15.74 79.92-10.66L79.92-10.66ZM74.28-10.78L74.28-10.78Q74.28-13.73 73.23-15.33Q72.19-16.93 70.19-16.93L70.19-16.93Q67.54-16.93 66.54-14.90L66.54-14.90L66.54-6.25Q67.58-4.16 70.23-4.16L70.23-4.16Q74.28-4.16 74.28-10.78Z M83.34-10.51L83.34-10.76Q83.34-13.91 84.55-16.37Q85.76-18.83 88.03-20.18Q90.31-21.52 93.32-21.52L93.32-21.52Q97.60-21.52 100.30-18.91Q103.01-16.29 103.32-11.80L103.32-11.80L103.36-10.35Q103.36-5.49 100.64-2.55Q97.93 0.39 93.36 0.39Q88.79 0.39 86.06-2.54Q83.34-5.47 83.34-10.51L83.34-10.51ZM88.98-10.35L88.98-10.35Q88.98-7.34 90.11-5.75Q91.25-4.16 93.36-4.16L93.36-4.16Q95.41-4.16 96.56-5.73Q97.71-7.30 97.71-10.76L97.71-10.76Q97.71-13.71 96.56-15.33Q95.41-16.95 93.32-16.95L93.32-16.95Q91.25-16.95 90.11-15.34Q88.98-13.73 88.98-10.35Z M122.16-21.13L126.01-7.68L128.79-21.13L134.24-21.13L128.84 0L124.12 0L120.11-13.30L116.11 0L111.40 0L106.01-21.13L111.46-21.13L114.22-7.70L118.08-21.13L122.16-21.13Z M147.55 0.39L147.55 0.39Q142.91 0.39 139.99-2.46Q137.07-5.31 137.07-10.06L137.07-10.06L137.07-10.61Q137.07-13.79 138.30-16.30Q139.53-18.81 141.78-20.17Q144.04-21.52 146.93-21.52L146.93-21.52Q151.27-21.52 153.76-18.79Q156.25-16.05 156.25-11.04L156.25-11.04L156.25-8.73L142.79-8.73Q143.06-6.66 144.44-5.41Q145.82-4.16 147.93-4.16L147.93-4.16Q151.19-4.16 153.02-6.52L153.02-6.52L155.80-3.42Q154.53-1.62 152.36-0.62Q150.19 0.39 147.55 0.39ZM146.91-16.95L146.91-16.95Q145.23-16.95 144.19-15.82Q143.14-14.69 142.85-12.58L142.85-12.58L150.70-12.58L150.70-13.03Q150.66-14.90 149.68-15.93Q148.71-16.95 146.91-16.95Z M172.20-21.27L172.12-15.84Q170.97-16.00 170.09-16.00L170.09-16.00Q166.89-16.00 165.89-13.83L165.89-13.83L165.89 0L160.25 0L160.25-21.13L165.58-21.13L165.74-18.61Q167.44-21.52 170.44-21.52L170.44-21.52Q171.38-21.52 172.20-21.27L172.20-21.27Z M190.70-28.44L196.58-15.63L202.49-28.44L208.90-28.44L199.56-10.31L199.56 0L193.61 0L193.61-10.31L184.27-28.44L190.70-28.44Z M209.78-10.51L209.78-10.76Q209.78-13.91 210.99-16.37Q212.20-18.83 214.48-20.18Q216.75-21.52 219.76-21.52L219.76-21.52Q224.04-21.52 226.74-18.91Q229.45-16.29 229.76-11.80L229.76-11.80L229.80-10.35Q229.80-5.49 227.08-2.55Q224.37 0.39 219.80 0.39Q215.23 0.39 212.50-2.54Q209.78-5.47 209.78-10.51L209.78-10.51ZM215.42-10.35L215.42-10.35Q215.42-7.34 216.56-5.75Q217.69-4.16 219.80-4.16L219.80-4.16Q221.85-4.16 223.00-5.73Q224.15-7.30 224.15-10.76L224.15-10.76Q224.15-13.71 223.00-15.33Q221.85-16.95 219.76-16.95L219.76-16.95Q217.69-16.95 216.56-15.34Q215.42-13.73 215.42-10.35Z M246.89 0L246.73-2.15Q244.64 0.39 240.95 0.39L240.95 0.39Q237.55 0.39 235.76-1.56Q233.98-3.52 233.94-7.29L233.94-7.29L233.94-21.13L239.58-21.13L239.58-7.48Q239.58-4.18 242.59-4.18L242.59-4.18Q245.46-4.18 246.54-6.17L246.54-6.17L246.54-21.13L252.20-21.13L252.20 0L246.89 0Z M269.21-21.27L269.13-15.84Q267.98-16.00 267.10-16.00L267.10-16.00Q263.90-16.00 262.90-13.83L262.90-13.83L262.90 0L257.26 0L257.26-21.13L262.59-21.13L262.75-18.61Q264.44-21.52 267.45-21.52L267.45-21.52Q268.39-21.52 269.21-21.27L269.21-21.27Z M287.88-28.44L294.29-7.05L300.73-28.44L307.26-28.44L297.35 0L291.24 0L281.38-28.44L287.88-28.44Z M308.58-10.51L308.58-10.76Q308.58-13.91 309.79-16.37Q311.00-18.83 313.28-20.18Q315.56-21.52 318.56-21.52L318.56-21.52Q322.84-21.52 325.55-18.91Q328.25-16.29 328.56-11.80L328.56-11.80L328.60-10.35Q328.60-5.49 325.89-2.55Q323.17 0.39 318.60 0.39Q314.03 0.39 311.31-2.54Q308.58-5.47 308.58-10.51L308.58-10.51ZM314.23-10.35L314.23-10.35Q314.23-7.34 315.36-5.75Q316.49-4.16 318.60-4.16L318.60-4.16Q320.65-4.16 321.81-5.73Q322.96-7.30 322.96-10.76L322.96-10.76Q322.96-13.71 321.81-15.33Q320.65-16.95 318.56-16.95L318.56-16.95Q316.49-16.95 315.36-15.34Q314.23-13.73 314.23-10.35Z M333.99-26.33L339.64-26.33L339.64-21.13L343.25-21.13L343.25-16.99L339.64-16.99L339.64-6.45Q339.64-5.27 340.09-4.77Q340.54-4.26 341.80-4.26L341.80-4.26Q342.74-4.26 343.46-4.39L343.46-4.39L343.46-0.12Q341.80 0.39 340.05 0.39L340.05 0.39Q334.11 0.39 333.99-5.61L333.99-5.61L333.99-16.99L330.91-16.99L330.91-21.13L333.99-21.13L333.99-26.33Z M356.92 0.39L356.92 0.39Q352.27 0.39 349.35-2.46Q346.43-5.31 346.43-10.06L346.43-10.06L346.43-10.61Q346.43-13.79 347.66-16.30Q348.89-18.81 351.15-20.17Q353.41-21.52 356.30-21.52L356.30-21.52Q360.63-21.52 363.12-18.79Q365.61-16.05 365.61-11.04L365.61-11.04L365.61-8.73L352.16-8.73Q352.43-6.66 353.81-5.41Q355.18-4.16 357.29-4.16L357.29-4.16Q360.55-4.16 362.39-6.52L362.39-6.52L365.16-3.42Q363.89-1.62 361.73-0.62Q359.56 0.39 356.92 0.39ZM356.28-16.95L356.28-16.95Q354.60-16.95 353.55-15.82Q352.51-14.69 352.21-12.58L352.21-12.58L360.07-12.58L360.07-13.03Q360.03-14.90 359.05-15.93Q358.07-16.95 356.28-16.95Z"/></g>
</svg>
</g><g opacity="1" transform="rotate(0 553.6603 531.6509)">
<svg width="337.657" height="50" x="553.6603" y="531.6509" version="1.1" preserveAspectRatio="none" viewBox="1.6 -25.44 171.8 25.44">
  <g transform="matrix(1 0 0 1 0 0)" class="companyName"><path id="id-D6z1nYkh11" d="M16.84-21.04L16.84-16.52L11.08-16.52L11.08-20.52Q11.08-21.52 10.04-21.52L10.04-21.52L8.40-21.52Q7.32-21.52 7.32-20.52L7.32-20.52L7.32-4.92Q7.32-4.36 7.56-4.14Q7.80-3.92 8.40-3.92L8.40-3.92L10.04-3.92Q10.60-3.92 10.84-4.14Q11.08-4.36 11.08-4.92L11.08-4.92L11.08-8.80L16.84-8.80L16.84-4.40Q16.84 0 11.76 0L11.76 0L6.64 0Q1.60 0 1.60-4.40L1.60-4.40L1.60-21.04Q1.60-25.44 6.64-25.44L6.64-25.44L11.76-25.44Q16.84-25.44 16.84-21.04L16.84-21.04Z M20.72 0L20.72-25.44L26.40-25.44L26.40 0L20.72 0Z M38.48-6.56L41.68-25.44L47.60-25.44L42 0L35 0L29.36-25.44L35.32-25.44L38.48-6.56Z M50.60 0L50.60-25.44L56.28-25.44L56.28 0L50.60 0Z M75.84-21.04L75.84-16.52L70.08-16.52L70.08-20.52Q70.08-21.52 69.04-21.52L69.04-21.52L67.40-21.52Q66.32-21.52 66.32-20.52L66.32-20.52L66.32-4.92Q66.32-4.36 66.56-4.14Q66.80-3.92 67.40-3.92L67.40-3.92L69.04-3.92Q69.60-3.92 69.84-4.14Q70.08-4.36 70.08-4.92L70.08-4.92L70.08-8.80L75.84-8.80L75.84-4.40Q75.84 0 70.76 0L70.76 0L65.64 0Q60.60 0 60.60-4.40L60.60-4.40L60.60-21.04Q60.60-25.44 65.64-25.44L65.64-25.44L70.76-25.44Q75.84-25.44 75.84-21.04L75.84-21.04Z M101.24-25.44L101.24-21.24L93.28-21.24L93.28-14.24L99.96-14.24L99.96-10.28L93.28-10.28L93.28 0L87.56 0L87.56-25.44L101.24-25.44Z M110.04-10.84L110.04-4.20L118.20-4.20L118.20 0L104.32 0L104.32-25.44L117.88-25.44L117.88-21.24L110.04-21.24L110.04-15.04L116.72-15.04L116.72-10.84L110.04-10.84Z M127.20-10.84L127.20-4.20L135.36-4.20L135.36 0L121.48 0L121.48-25.44L135.04-25.44L135.04-21.24L127.20-21.24L127.20-15.04L133.88-15.04L133.88-10.84L127.20-10.84Z M138.92 0L138.92-25.44L149.52-25.44Q154.60-25.44 154.60-21.04L154.60-21.04L154.60-4.44Q154.60 0 149.52 0L149.52 0L138.92 0ZM148.88-4.92L148.88-4.92L148.88-20.52Q148.88-21.52 147.80-21.52L147.80-21.52L144.64-21.52L144.64-3.92L147.80-3.92Q148.88-3.92 148.88-4.92Z M167.68-5.20L167.68-5.20L167.68-9.80Q167.68-10.32 167.44-10.54Q167.20-10.76 166.60-10.76L166.60-10.76L163.08-10.76Q158.36-10.76 158.36-15.24L158.36-15.24L158.36-21.04Q158.36-25.44 163.40-25.44L163.40-25.44L168.28-25.44Q173.32-25.44 173.32-21.04L173.32-21.04L173.32-17.72L167.60-17.72L167.60-20.24Q167.60-21.24 166.52-21.24L166.52-21.24L165.16-21.24Q164.08-21.24 164.08-20.24L164.08-20.24L164.08-15.76Q164.08-15.24 164.32-15.02Q164.56-14.80 165.16-14.80L165.16-14.80L168.60-14.80Q171.16-14.80 172.28-13.70Q173.40-12.60 173.40-10.44L173.40-10.44L173.40-4.44Q173.40 0 168.36 0L168.36 0L163.52 0Q158.44 0 158.44-4.44L158.44-4.44L158.44-7.72L164.16-7.72L164.16-5.20Q164.16-4.20 165.24-4.20L165.24-4.20L166.60-4.20Q167.68-4.20 167.68-5.20Z"/></g>
</svg>
</g></svg></svg>