<svg version="1.1" preserveAspectRatio="none" xmlns="http://www.w3.org/2000/svg" width="500" height="500" viewBox="0 0 500 500"><rect width="100%" height="100%" fill="#4B50D1" fill-opacity="1"/><svg viewBox="246.6422 159.9518 211.2071 152" width="333" height="239.65103445859538" x="83.5px" y="130.1745px" xmlns="http://www.w3.org/2000/svg" xmlns:xlink="http://www.w3.org/1999/xlink" preserveAspectRatio="none"><defs></defs><style>.companyName {fill:#D5ED86;fill-opacity:1;}.icon3-floo {flood-color:#978DAE;flood-opacity:1;}.icon3-str {stroke:#978DAE;stroke-opacity:1;}.text {fill:#D5ED86;fill-opacity:1;}</style><defs>
      <filter
        x="246.6422"
        y="159.9518"
        width="211.2071"
        height="120"
        id="AwMhOMVKs"
        filterUnits="userSpaceOnUse"
        primitiveUnits="userSpaceOnUse"
        color-interpolation-filters="sRGB">
        
    <feGaussianBlur in="SourceGraphic" stdDeviation="0"/>
    <feOffset dx="5.062491798430227" dy="0" result="uGgmdxraiN"/>
    <feFlood flood-color="#978DAE" flood-opacity="1" in="uGgmdxraiN" />
    <feComposite  in2="uGgmdxraiN" operator="in" result="Oo-XYQDjTH"/><feMerge result="a8hw68yurqC"><feMergeNode in="Oo-XYQDjTH" /><feMergeNode in="SourceGraphic" /></feMerge>
      </filter></defs><g filter="url(#AwMhOMVKs)"><g opacity="1" transform="rotate(0 246.6422 159.9518)">
<svg width="206.1446" height="120" x="246.6422" y="159.9518" version="1.1" preserveAspectRatio="none" viewBox="-0.08 -35.6 116.96 68.08000000000001">
  <g transform="matrix(1 0 0 1 0 0)" class="companyName"><path id="id-D6z1nYkh10" d="M9.24-23.04L9.16-23L9.24-23.04ZM16.56-12.64Q16.92-12.80 17.32-12.80L17.32-12.80Q18.28-12.80 18.86-11.64Q19.44-10.48 19.44-9.12L19.44-9.12Q19.44-8.40 19.24-7.88L19.24-7.88Q18.64-6.32 17.28-5.04Q15.92-3.76 14-2.44L14-2.44Q12.12-1.20 9.58-0.18Q7.04 0.84 4.88 0.84L4.88 0.84Q1.64 0.84 0.56-1.72L0.56-1.72Q-0.08-3.16-0.08-5.36L-0.08-5.36Q-0.08-8.12 0.82-11.06Q1.72-14 3.28-18.04L3.28-18.04Q4.84-22 7-25.58Q9.16-29.16 11.76-29.16L11.76-29.16Q12.44-29.16 13-28.88L13-28.88Q13.44-31.92 15.04-33.36L15.04-33.36Q16.04-34.20 16.76-34.20L16.76-34.20Q17.60-34.20 18.04-33.20L18.04-33.20Q18.32-32.48 18.32-31.36L18.32-31.36Q18.32-30.80 18.24-29.84L18.24-29.84L18.20-28.64Q18.12-25.72 17.84-22.80L17.84-22.80Q17.60-20.16 16.68-17.76Q15.76-15.36 13.76-15.16L13.76-15.16Q12.76-15.04 12.14-16.20Q11.52-17.36 10.84-19.60L10.84-19.60Q10.40-21.04 10.10-21.78Q9.80-22.52 9.44-22.88L9.44-22.88Q7.16-18.84 6.08-14.04L6.08-14.04L5.88-13.24Q5.56-11.80 5.38-10.86Q5.20-9.92 5.20-9L5.20-9Q5.20-6.96 6.24-6.20L6.24-6.20Q6.96-5.60 8.28-5.60L8.28-5.60Q9.16-5.60 10.20-5.88L10.20-5.88Q11.24-6.12 12.40-6.64L12.40-6.64Q12.76-6.80 13.48-7.20L13.48-7.20Q13.80-7.24 13.80-7.44L13.80-7.44Q13.80-7.60 13.60-7.76L13.60-7.76Q13.68-8.12 13.76-8.76L13.76-8.76Q13.84-9.36 13.96-9.76Q14.08-10.16 14.36-10.60L14.36-10.60Q15.40-12.12 16.56-12.64L16.56-12.64Z M22.52-28.96Q21.84-29.44 21.84-30.48L21.84-30.48Q21.84-30.68 21.92-31.16L21.92-31.16Q22.20-32.36 23.02-33.42Q23.84-34.48 24.92-35.12L24.92-35.12Q25.76-35.60 26.60-35.60L26.60-35.60Q27.48-35.60 27.96-35L27.96-35Q28.32-34.52 28.32-33.84L28.32-33.84Q28.32-33.24 27.96-32.32L27.96-32.32Q27.56-31.20 26.74-30.28Q25.92-29.36 24.88-28.88L24.88-28.88Q24.04-28.48 23.40-28.60L23.40-28.60Q22.80-28.68 22.52-28.96L22.52-28.96ZM25.88-6.16L25.92-5.88Q25.92-5.60 25.82-5.24Q25.72-4.88 25.68-4.72L25.68-4.72L25.60-4.48Q25.20-3 24.16-1.68Q23.12-0.36 21.56-0.36L21.56-0.36Q21.40-0.36 21.32-0.40L21.32-0.40Q20.68-0.48 20.28-0.88L20.28-0.88Q19.68-1.60 19.68-3.12L19.68-3.12Q19.68-3.68 19.76-4.40L19.76-4.40Q19.72-4.52 19.74-4.66Q19.76-4.80 19.76-4.84L19.76-4.84Q19.88-7.68 20.60-12.56L20.60-12.56L20.76-13.80Q21.16-16.52 21.28-17.88L21.28-17.88L21.44-19.68Q21.44-19.96 21.48-20.12L21.48-20.12Q21.56-20.68 21.52-20.84L21.52-20.84Q21.48-20.88 21.48-20.94Q21.48-21 21.44-21.04L21.44-21.04Q21.20-21.36 21.20-21.88L21.20-21.88Q21.20-22.52 21.32-23.16L21.32-23.16Q21.36-23.28 21.36-23.56L21.36-23.56Q21.64-25.40 22.92-26.72L22.92-26.72Q24.24-28.04 25.40-28.04L25.40-28.04Q25.84-28.04 26.24-27.84L26.24-27.84Q27.24-27.32 27.24-25.64L27.24-25.64Q27.16-24.52 27.16-23.96L27.16-23.96L27.12-22.92L27-20.72Q26.96-18.64 26.76-16.48L26.76-16.48Q26.72-15.68 26.28-11.20L26.28-11.20L26.16-9.96L26.08-9.16L25.84-6.96Q25.80-6.80 25.82-6.70Q25.84-6.60 25.84-6.48L25.84-6.48Q25.92-6.28 25.88-6.16L25.88-6.16Z M40.52-32.32Q40.96-32.04 40.96-30.96L40.96-30.96Q40.96-29.96 40.64-28.44L40.64-28.44Q40.48-27.48 40.48-27.36L40.48-27.36Q40.36-24.20 40.08-21.76L40.08-21.76Q39.32-14.48 38.32-10L38.32-10Q37.80-7.68 37.38-6.22Q36.96-4.76 36.08-3.24Q35.20-1.72 33.88-1.08L33.88-1.08Q33.36-0.84 32.96-0.84L32.96-0.84Q31.84-0.84 31.48-2.46Q31.12-4.08 31.12-6.56L31.12-6.56L31.12-7.52Q31.12-7.76 31.14-8.08Q31.16-8.40 31.12-8.72L31.12-8.72Q30.80-14.08 29.88-20.40L29.88-20.40Q29.36-24.24 29.08-25.96L29.08-25.96Q28.84-27.48 28.84-28.20L28.84-28.20Q28.84-29.60 29.60-30.68L29.60-30.68Q30.04-31.32 30.62-31.80Q31.20-32.28 31.76-32.28L31.76-32.28Q32.24-32.28 32.56-31.84L32.56-31.84Q32.84-31.48 32.96-30.84Q33.08-30.20 33.16-29.08L33.16-29.08Q33.16-28.56 33.24-28L33.24-28Q33.56-26.04 34.16-23L34.16-23Q34.96-19.28 35.28-16.80L35.28-16.80Q35.36-17.76 35.44-19.60L35.44-19.60Q35.52-21.88 35.68-23.56Q35.84-25.24 36.20-26.88L36.20-26.88Q36.32-27.60 36.86-28.98Q37.40-30.36 38.18-31.46Q38.96-32.56 39.80-32.56L39.80-32.56Q40.16-32.56 40.52-32.32L40.52-32.32Z M44.12-28.96Q43.44-29.44 43.44-30.48L43.44-30.48Q43.44-30.68 43.52-31.16L43.52-31.16Q43.80-32.36 44.62-33.42Q45.44-34.48 46.52-35.12L46.52-35.12Q47.36-35.60 48.20-35.60L48.20-35.60Q49.08-35.60 49.56-35L49.56-35Q49.92-34.52 49.92-33.84L49.92-33.84Q49.92-33.24 49.56-32.32L49.56-32.32Q49.16-31.20 48.34-30.28Q47.52-29.36 46.48-28.88L46.48-28.88Q45.64-28.48 45-28.60L45-28.60Q44.40-28.68 44.12-28.96L44.12-28.96ZM47.48-6.16L47.52-5.88Q47.52-5.60 47.42-5.24Q47.32-4.88 47.28-4.72L47.28-4.72L47.20-4.48Q46.80-3 45.76-1.68Q44.72-0.36 43.16-0.36L43.16-0.36Q43-0.36 42.92-0.40L42.92-0.40Q42.28-0.48 41.88-0.88L41.88-0.88Q41.28-1.60 41.28-3.12L41.28-3.12Q41.28-3.68 41.36-4.40L41.36-4.40Q41.32-4.52 41.34-4.66Q41.36-4.80 41.36-4.84L41.36-4.84Q41.48-7.68 42.20-12.56L42.20-12.56L42.36-13.80Q42.76-16.52 42.88-17.88L42.88-17.88L43.04-19.68Q43.04-19.96 43.08-20.12L43.08-20.12Q43.16-20.68 43.12-20.84L43.12-20.84Q43.08-20.88 43.08-20.94Q43.08-21 43.04-21.04L43.04-21.04Q42.80-21.36 42.80-21.88L42.80-21.88Q42.80-22.52 42.92-23.16L42.92-23.16Q42.96-23.28 42.96-23.56L42.96-23.56Q43.24-25.40 44.52-26.72L44.52-26.72Q45.84-28.04 47-28.04L47-28.04Q47.44-28.04 47.84-27.84L47.84-27.84Q48.84-27.32 48.84-25.64L48.84-25.64Q48.76-24.52 48.76-23.96L48.76-23.96L48.72-22.92L48.60-20.72Q48.56-18.64 48.36-16.48L48.36-16.48Q48.32-15.68 47.88-11.20L47.88-11.20L47.76-9.96L47.68-9.16L47.44-6.96Q47.40-6.80 47.42-6.70Q47.44-6.60 47.44-6.48L47.44-6.48Q47.52-6.28 47.48-6.16L47.48-6.16Z M59.56-23.04L59.48-23L59.56-23.04ZM66.88-12.64Q67.24-12.80 67.64-12.80L67.64-12.80Q68.60-12.80 69.18-11.64Q69.76-10.48 69.76-9.12L69.76-9.12Q69.76-8.40 69.56-7.88L69.56-7.88Q68.96-6.32 67.60-5.04Q66.24-3.76 64.32-2.44L64.32-2.44Q62.44-1.20 59.90-0.18Q57.36 0.84 55.20 0.84L55.20 0.84Q51.96 0.84 50.88-1.72L50.88-1.72Q50.24-3.16 50.24-5.36L50.24-5.36Q50.24-8.12 51.14-11.06Q52.04-14 53.60-18.04L53.60-18.04Q55.16-22 57.32-25.58Q59.48-29.16 62.08-29.16L62.08-29.16Q62.76-29.16 63.32-28.88L63.32-28.88Q63.76-31.92 65.36-33.36L65.36-33.36Q66.36-34.20 67.08-34.20L67.08-34.20Q67.92-34.20 68.36-33.20L68.36-33.20Q68.64-32.48 68.64-31.36L68.64-31.36Q68.64-30.80 68.56-29.84L68.56-29.84L68.52-28.64Q68.44-25.72 68.16-22.80L68.16-22.80Q67.92-20.16 67-17.76Q66.08-15.36 64.08-15.16L64.08-15.16Q63.08-15.04 62.46-16.20Q61.84-17.36 61.16-19.60L61.16-19.60Q60.72-21.04 60.42-21.78Q60.12-22.52 59.76-22.88L59.76-22.88Q57.48-18.84 56.40-14.04L56.40-14.04L56.20-13.24Q55.88-11.80 55.70-10.86Q55.52-9.92 55.52-9L55.52-9Q55.52-6.96 56.56-6.20L56.56-6.20Q57.28-5.60 58.60-5.60L58.60-5.60Q59.48-5.60 60.52-5.88L60.52-5.88Q61.56-6.12 62.72-6.64L62.72-6.64Q63.08-6.80 63.80-7.20L63.80-7.20Q64.12-7.24 64.12-7.44L64.12-7.44Q64.12-7.60 63.92-7.76L63.92-7.76Q64-8.12 64.08-8.76L64.08-8.76Q64.16-9.36 64.28-9.76Q64.40-10.16 64.68-10.60L64.68-10.60Q65.72-12.12 66.88-12.64L66.88-12.64Z M20.56-3.36Q22.20-3.48 22.20-2.16L22.20-2.16Q22.20-1.48 21.78-0.62Q21.36 0.24 20.84 0.88L20.84 0.88Q20.32 1.52 19.86 1.74Q19.40 1.96 18.84 1.96L18.84 1.96L17.72 1.92Q17.16 1.92 16.84 2L16.84 2Q14.88 2.40 12.68 3.04L12.68 3.04Q12.64 3.04 11.80 3.24L11.80 3.24Q11.64 3.28 11.02 3.42Q10.40 3.56 9.94 3.72Q9.48 3.88 9.28 4.12L9.28 4.12Q8.88 4.52 8.88 5.36L8.88 5.36Q8.88 6.16 9.22 7.26Q9.56 8.36 9.60 8.56L9.60 8.56Q10.04 9.80 10.08 10.32L10.08 10.32Q11.68 9.76 13.88 9.18Q16.08 8.60 17.76 8.60L17.76 8.60Q20.12 8.60 20.12 10L20.12 10Q20.12 10.64 19.60 11.64L19.60 11.64Q19.04 12.60 18.28 13.08Q17.52 13.56 16.72 13.70Q15.92 13.84 14.56 13.96L14.56 13.96Q14.32 13.96 13.86 14Q13.40 14.04 13.08 14.08L13.08 14.08Q12.88 14.12 12.20 14.18Q11.52 14.24 11.04 14.44L11.04 14.44Q10.44 14.68 10.30 14.78Q10.16 14.88 10.16 15.14Q10.16 15.40 10.12 15.88L10.12 15.88Q10.04 17 9.72 19.24L9.72 19.24L9.60 20.08Q9.20 22.80 8.76 24.80Q8.32 26.80 7.52 28.64L7.52 28.64Q6.96 29.84 5.94 31.16Q4.92 32.48 3.92 32.48L3.92 32.48Q3.64 32.48 3.40 32.36L3.40 32.36Q2.68 32 2.68 30.16L2.68 30.16Q2.68 28.96 3.08 26.48L3.08 26.48L3.20 25.56L3.84 19.60Q4.08 17.84 4.16 16.96L4.16 16.96L3.48 17.36Q1.64 18.56 0.84 18.56L0.84 18.56Q0.52 18.56 0.32 18.40L0.32 18.40Q-0.08 18.04-0.08 17.56L-0.08 17.56Q-0.08 16.72 0.80 15.72Q1.68 14.72 2.52 14.12L2.52 14.12Q2.88 13.84 3.32 13.64L3.32 13.64Q4.08 13.16 4.42 12.74Q4.76 12.32 4.76 11.40L4.76 11.40Q4.76 10.72 4.48 9.88L4.48 9.88Q4.28 9.32 3.88 8.78Q3.48 8.24 3.40 8.12L3.40 8.12Q2.84 7.32 2.56 6.82Q2.28 6.32 2.28 5.72L2.28 5.72Q2.28 5.24 2.52 4.64L2.52 4.64Q3.08 3.36 4.42 2.48Q5.76 1.60 7.88 0.68L7.88 0.68L8.96 0.20Q12.20-1.32 15.02-2.26Q17.84-3.20 20.56-3.36L20.56-3.36Z M40.56 24.32Q42.08 24.52 42.08 25.92L42.08 25.92Q42.08 26.44 41.86 27.06Q41.64 27.68 41.28 28.20L41.28 28.20Q40.52 29.32 39.54 29.72Q38.56 30.12 37 30.20L37 30.20Q33.84 30.32 32.48 30.32L32.48 30.32Q28.56 30.44 27.04 30.52L27.04 30.52Q23.92 30.64 21.56 31.32L21.56 31.32Q20.60 31.56 20.24 31.56L20.24 31.56Q19.80 31.56 19.56 31.28Q19.32 31 19.32 30.28L19.32 30.28Q19.32 29.52 19.62 28.70Q19.92 27.88 20.56 26.48L20.56 26.48Q21.12 25.40 21.44 24.48L21.44 24.48Q21.52 24.20 21.82 23.36Q22.12 22.52 22.24 21.84L22.24 21.84Q22.28 21.64 22.28 21.36L22.28 21.36Q22.28 21.12 22.20 20.78Q22.12 20.44 22.08 20.12L22.08 20.12Q22.04 19.48 22.26 18.86Q22.48 18.24 22.92 17.44L22.92 17.44Q23.60 16.04 23.72 15.44L23.72 15.44Q24.44 12 24.52 10.24L24.52 10.24L24.56 9Q24.56 7.80 24.32 7.24L24.32 7.24Q24.12 6.76 23.60 6.28L23.60 6.28Q23.12 5.80 22.96 5.48L22.96 5.48Q22.76 5.12 22.76 4.52L22.76 4.52Q22.76 3.84 23.10 3.06Q23.44 2.28 23.96 1.64L23.96 1.64Q24.88 0.44 26.16 0.44L26.16 0.44Q27.12 0.44 28.10 1Q29.08 1.56 30.48 2.64L30.48 2.64Q31.52 3.44 32.04 3.76L32.04 3.76Q33.92 4.88 35.20 5.48Q36.48 6.08 37.92 6.36L37.92 6.36Q38.60 6.48 39.20 6.48L39.20 6.48Q39.84 6.48 40.48 6.36L40.48 6.36Q40.72 6.32 41.26 6.10Q41.80 5.88 42.08 5.88L42.08 5.88Q42.36 5.88 42.56 6.04L42.56 6.04Q42.96 6.32 42.96 6.96L42.96 6.96Q42.96 7.60 42.58 8.38Q42.20 9.16 41.80 9.68L41.80 9.68Q40.56 11.20 38.28 11.52L38.28 11.52Q37.56 11.64 36.80 11.64L36.80 11.64Q34.76 11.64 32.80 10.94Q30.84 10.24 28.32 8.96L28.32 8.96Q28.08 12.04 27.40 15.36L27.40 15.36L28.76 15.04Q30.88 14.52 32.22 14.26Q33.56 14 34.84 14L34.84 14Q35.40 14 35.68 14.04L35.68 14.04Q37.08 14.16 37.08 15.44L37.08 15.44Q37.08 16.04 36.78 16.76Q36.48 17.48 36.04 18.08L36.04 18.08Q35.24 19.16 34.08 19.48Q32.92 19.80 31.08 19.84L31.08 19.84L29.72 19.92Q28.28 20.08 27.52 20.20L27.52 20.20Q26.76 20.28 26.58 20.38Q26.40 20.48 26.26 20.76Q26.12 21.04 25.96 21.28L25.96 21.28Q25.68 21.76 25.44 22.52Q25.20 23.28 25.04 24.04L25.04 24.04Q24.80 25.16 24.64 25.64L24.64 25.64Q26.88 25.12 31.18 24.66Q35.48 24.20 38.44 24.20L38.44 24.20Q39.72 24.20 40.56 24.32L40.56 24.32Z M63.24 24.32Q64.76 24.52 64.76 25.92L64.76 25.92Q64.76 26.44 64.54 27.06Q64.32 27.68 63.96 28.20L63.96 28.20Q63.20 29.32 62.22 29.72Q61.24 30.12 59.68 30.20L59.68 30.20Q56.52 30.32 55.16 30.32L55.16 30.32Q51.24 30.44 49.72 30.52L49.72 30.52Q46.60 30.64 44.24 31.32L44.24 31.32Q43.28 31.56 42.92 31.56L42.92 31.56Q42.48 31.56 42.24 31.28Q42 31 42 30.28L42 30.28Q42 29.52 42.30 28.70Q42.60 27.88 43.24 26.48L43.24 26.48Q43.80 25.40 44.12 24.48L44.12 24.48Q44.20 24.20 44.50 23.36Q44.80 22.52 44.92 21.84L44.92 21.84Q44.96 21.64 44.96 21.36L44.96 21.36Q44.96 21.12 44.88 20.78Q44.80 20.44 44.76 20.12L44.76 20.12Q44.72 19.48 44.94 18.86Q45.16 18.24 45.60 17.44L45.60 17.44Q46.28 16.04 46.40 15.44L46.40 15.44Q47.12 12 47.20 10.24L47.20 10.24L47.24 9Q47.24 7.80 47 7.24L47 7.24Q46.80 6.76 46.28 6.28L46.28 6.28Q45.80 5.80 45.64 5.48L45.64 5.48Q45.44 5.12 45.44 4.52L45.44 4.52Q45.44 3.84 45.78 3.06Q46.12 2.28 46.64 1.64L46.64 1.64Q47.56 0.44 48.84 0.44L48.84 0.44Q49.80 0.44 50.78 1Q51.76 1.56 53.16 2.64L53.16 2.64Q54.20 3.44 54.72 3.76L54.72 3.76Q56.60 4.88 57.88 5.48Q59.16 6.08 60.60 6.36L60.60 6.36Q61.28 6.48 61.88 6.48L61.88 6.48Q62.52 6.48 63.16 6.36L63.16 6.36Q63.40 6.32 63.94 6.10Q64.48 5.88 64.76 5.88L64.76 5.88Q65.04 5.88 65.24 6.04L65.24 6.04Q65.64 6.32 65.64 6.96L65.64 6.96Q65.64 7.60 65.26 8.38Q64.88 9.16 64.48 9.68L64.48 9.68Q63.24 11.20 60.96 11.52L60.96 11.52Q60.24 11.64 59.48 11.64L59.48 11.64Q57.44 11.64 55.48 10.94Q53.52 10.24 51 8.96L51 8.96Q50.76 12.04 50.08 15.36L50.08 15.36L51.44 15.04Q53.56 14.52 54.90 14.26Q56.24 14 57.52 14L57.52 14Q58.08 14 58.36 14.04L58.36 14.04Q59.76 14.16 59.76 15.44L59.76 15.44Q59.76 16.04 59.46 16.76Q59.16 17.48 58.72 18.08L58.72 18.08Q57.92 19.16 56.76 19.48Q55.60 19.80 53.76 19.84L53.76 19.84L52.40 19.92Q50.96 20.08 50.20 20.20L50.20 20.20Q49.44 20.28 49.26 20.38Q49.08 20.48 48.94 20.76Q48.80 21.04 48.64 21.28L48.64 21.28Q48.36 21.76 48.12 22.52Q47.88 23.28 47.72 24.04L47.72 24.04Q47.48 25.16 47.32 25.64L47.32 25.64Q49.56 25.12 53.86 24.66Q58.16 24.20 61.12 24.20L61.12 24.20Q62.40 24.20 63.24 24.32L63.24 24.32Z M66.08-1.56Q66.60-1.84 67.20-1.84L67.20-1.84Q68.04-1.84 68.76-1.36L68.76-1.36Q69.04-1.16 69.28-0.96Q69.52-0.76 69.72-0.60L69.72-0.60Q69.96-0.44 70.36-0.28Q70.76-0.12 71.04 0.04L71.04 0.04Q72.24 0.68 74.56 2.04L74.56 2.04L78.12 4.08Q81.20 5.84 83.52 7.12L83.52 7.12L86.08 8.48Q88.36 9.64 89.94 10.56Q91.52 11.48 92.88 12.64L92.88 12.64Q93.88 13.56 94.44 14.44Q95 15.32 95 16.36L95 16.36L94.96 16.80Q94.56 19.12 92.52 21.24L92.52 21.24Q90.96 22.92 88.86 24.12Q86.76 25.32 84.04 26.40L84.04 26.40Q79.40 28.16 73.40 29.56L73.40 29.56Q72.76 29.72 72.48 29.76L72.48 29.76L70.84 30.16L68.52 30.60Q67.44 30.80 65.88 31L65.88 31Q65.72 31.04 65.30 31.14Q64.88 31.24 64.56 31.24L64.56 31.24Q64.40 31.24 64.08 31.16L64.08 31.16Q63.24 31 63.24 30.16L63.24 30.16Q63.24 29.60 63.62 28.86Q64 28.12 64.40 27.68L64.40 27.68Q65.60 26.28 67.92 25.76L67.92 25.76Q68.40 25.64 68.50 25.50Q68.60 25.36 68.64 24.84L68.64 24.84Q68.64 24.12 68.72 22.68L68.72 22.68Q69.04 18.88 69.12 16.88L69.12 16.88Q69.28 14.96 69.32 14L69.32 14Q69.36 13.80 69.40 13.46Q69.44 13.12 69.44 12.64L69.44 12.64Q69.44 12.12 69.28 11.68L69.28 11.68Q68.44 9.64 66.60 6.64L66.60 6.64Q66.60 6.68 66.66 6.74Q66.72 6.80 66.76 6.96L66.76 6.96Q66.24 6.04 65.04 4.28L65.04 4.28Q64.88 4.08 64.68 3.76Q64.48 3.44 64.32 3.24L64.32 3.24Q64.20 3.12 64 2.90Q63.80 2.68 63.68 2.52L63.68 2.52Q63.48 2.12 63.48 1.80L63.48 1.80Q63.48 0.92 64.34-0.04Q65.20-1 66.08-1.56L66.08-1.56ZM75.84 22.56L75.40 24.20Q79.04 23.40 83.28 22.08L83.28 22.08Q85.56 21.36 87 20.76Q88.44 20.16 89.72 19.20L89.72 19.20Q88.56 17.80 87.10 16.78Q85.64 15.76 82.96 14.16L82.96 14.16L79.96 12.36L75.12 9.36Q76.60 13.56 76.60 17.24L76.60 17.24Q76.60 19.92 75.84 22.56L75.84 22.56Z M114.28 23.04Q114.48 23.28 115.22 24.08Q115.96 24.88 116.42 25.70Q116.88 26.52 116.88 27.28L116.88 27.28Q116.88 28.24 116.16 29.08L116.16 29.08Q115.28 30.16 114 30.16L114 30.16Q113.44 30.16 112.76 30Q112.08 29.84 111.88 29.80L111.88 29.80Q108.72 29.16 104.52 29.16L104.52 29.16Q101.28 29.16 97.64 29.48L97.64 29.48Q97.32 29.52 96.72 29.56Q96.12 29.60 95.64 29.60L95.64 29.60Q94.20 29.60 93.34 29.14Q92.48 28.68 92.48 27.44L92.48 27.44Q92.48 26.72 92.76 25.90Q93.04 25.08 93.60 23.92L93.60 23.92L93.96 23.08Q94.56 21.60 95.28 20.82Q96 20.04 97.32 20.04L97.32 20.04Q98.40 20.04 99.02 20.74Q99.64 21.44 99.64 22.48L99.64 22.48Q99.64 23.20 99.28 23.92L99.28 23.92Q101.80 23.76 105 23.76L105 23.76Q106.88 23.76 107.84 23.80L107.84 23.80Q104.16 19.16 102.36 16.80L102.36 16.80L99.60 13.32Q98.96 12.52 98.52 12.08L98.52 12.08Q97.04 10.36 96.28 9.14Q95.52 7.92 95.52 6.64L95.52 6.64Q95.52 5.44 96.38 4.70Q97.24 3.96 98.42 3.58Q99.60 3.20 101.40 2.84L101.40 2.84L103.08 2.48Q106.24 1.68 109.60 1.04L109.60 1.04Q109.88 1 110.72 0.84L110.72 0.84Q112.08 0.48 113.12 0.48L113.12 0.48Q114.44 0.48 115.12 1.20L115.12 1.20Q115.84 1.96 115.84 2.76L115.84 2.76Q115.84 3.52 115.38 4.28Q114.92 5.04 113.92 6.28L113.92 6.28Q112.72 7.72 112.40 8.40L112.40 8.40Q111.88 9.52 111.30 10.28Q110.72 11.04 110 11.04L110 11.04Q109.48 11.04 108.96 10.64L108.96 10.64Q108.40 10.20 108.40 9.44L108.40 9.44Q108.40 8.88 108.66 8.26Q108.92 7.64 109.18 7.12Q109.44 6.60 109.52 6.48L109.52 6.48Q107.48 6.84 103.48 7.88L103.48 7.88Q103 8.04 101.52 8.40L101.52 8.40L106.32 13.92Q112.48 20.92 114.28 23.04L114.28 23.04Z"/></g>
</svg>
</g></g><g opacity="1" transform="rotate(0 246.6422 295.9518)">
<svg width="186.3307" height="16" x="246.6422" y="295.9518" version="1.1" preserveAspectRatio="none" viewBox="4.2 -28 416.6 35.760000000000005">
  <g transform="matrix(1 0 0 1 0 0)" class="text"><path id="id-D-YM9nyY417" d="M8.20-3.48L24.52-3.48L24.52 0L4.20 0L4.20-28L23.96-28L23.96-24.52L8.20-24.52L8.20-15.92L22.24-15.92L22.24-12.52L8.20-12.52L8.20-3.48Z M58.16-21.40Q62.16-21.40 64.50-19.08Q66.84-16.76 66.84-12.20L66.84-12.20L66.84 0L63 0L63-11.76Q63-14.84 61.58-16.40Q60.16-17.96 57.52-17.96L57.52-17.96Q54.60-17.96 52.88-16.14Q51.16-14.32 51.16-10.92L51.16-10.92L51.16 0L47.32 0L47.32-11.76Q47.32-14.84 45.90-16.40Q44.48-17.96 41.84-17.96L41.84-17.96Q38.92-17.96 37.20-16.14Q35.48-14.32 35.48-10.92L35.48-10.92L35.48 0L31.64 0L31.64-21.20L35.32-21.20L35.32-18.04Q36.48-19.68 38.36-20.54Q40.24-21.40 42.64-21.40L42.64-21.40Q45.12-21.40 47.04-20.40Q48.96-19.40 50-17.48L50-17.48Q51.20-19.32 53.34-20.36Q55.48-21.40 58.16-21.40L58.16-21.40Z M86.36-21.40Q89.44-21.40 91.88-20.04Q94.32-18.68 95.70-16.24Q97.08-13.80 97.08-10.60L97.08-10.60Q97.08-7.40 95.70-4.94Q94.32-2.48 91.88-1.12Q89.44 0.24 86.36 0.24L86.36 0.24Q84.08 0.24 82.18-0.64Q80.28-1.52 78.96-3.20L78.96-3.20L78.96 7.76L75.12 7.76L75.12-21.20L78.80-21.20L78.80-17.84Q80.08-19.60 82.04-20.50Q84-21.40 86.36-21.40L86.36-21.40ZM86.04-3.12Q88.08-3.12 89.70-4.06Q91.32-5 92.26-6.70Q93.20-8.40 93.20-10.60L93.20-10.60Q93.20-12.80 92.26-14.50Q91.32-16.20 89.70-17.12Q88.08-18.04 86.04-18.04L86.04-18.04Q84.04-18.04 82.42-17.10Q80.80-16.16 79.86-14.48Q78.92-12.80 78.92-10.60L78.92-10.60Q78.92-8.40 79.84-6.70Q80.76-5 82.40-4.06Q84.04-3.12 86.04-3.12L86.04-3.12Z M112.68 0.24Q109.52 0.24 107.00-1.16Q104.48-2.56 103.06-5.02Q101.64-7.48 101.64-10.60L101.64-10.60Q101.64-13.72 103.06-16.18Q104.48-18.64 107.00-20.02Q109.52-21.40 112.68-21.40L112.68-21.40Q115.84-21.40 118.34-20.02Q120.84-18.64 122.26-16.18Q123.68-13.72 123.68-10.60L123.68-10.60Q123.68-7.48 122.26-5.02Q120.84-2.56 118.34-1.16Q115.84 0.24 112.68 0.24L112.68 0.24ZM112.68-3.12Q114.72-3.12 116.34-4.06Q117.96-5 118.88-6.70Q119.80-8.40 119.80-10.60L119.80-10.60Q119.80-12.80 118.88-14.50Q117.96-16.20 116.34-17.12Q114.72-18.04 112.68-18.04L112.68-18.04Q110.64-18.04 109.02-17.12Q107.40-16.20 106.46-14.50Q105.52-12.80 105.52-10.60L105.52-10.60Q105.52-8.40 106.46-6.70Q107.40-5 109.02-4.06Q110.64-3.12 112.68-3.12L112.68-3.12Z M158.24-21.20L161.68-21.20L153.76 0L150.08 0L143.96-16.08L137.76 0L134.08 0L126.20-21.20L129.84-21.20L136.00-4.32L142.40-21.20L145.64-21.20L151.92-4.24L158.24-21.20Z M185.32-10.48Q185.32-10.04 185.24-9.32L185.24-9.32L168.04-9.32Q168.40-6.52 170.50-4.82Q172.60-3.12 175.72-3.12L175.72-3.12Q179.52-3.12 181.84-5.68L181.84-5.68L183.96-3.20Q182.52-1.52 180.38-0.64Q178.24 0.24 175.60 0.24L175.60 0.24Q172.24 0.24 169.64-1.14Q167.04-2.52 165.62-5Q164.20-7.48 164.20-10.60L164.20-10.60Q164.20-13.68 165.58-16.16Q166.96-18.64 169.38-20.02Q171.80-21.40 174.84-21.40L174.84-21.40Q177.88-21.40 180.26-20.02Q182.64-18.64 183.98-16.16Q185.32-13.68 185.32-10.48L185.32-10.48ZM174.84-18.16Q172.08-18.16 170.22-16.48Q168.36-14.80 168.04-12.08L168.04-12.08L181.64-12.08Q181.32-14.76 179.46-16.46Q177.60-18.16 174.84-18.16L174.84-18.16Z M195.52-17.64Q196.52-19.48 198.48-20.44Q200.44-21.40 203.24-21.40L203.24-21.40L203.24-17.68Q202.92-17.72 202.36-17.72L202.36-17.72Q199.24-17.72 197.46-15.86Q195.68-14 195.68-10.56L195.68-10.56L195.68 0L191.84 0L191.84-21.20L195.52-21.20L195.52-17.64Z M243.80-28L232.68-9.68L232.68 0L228.72 0L228.72-9.76L217.60-28L221.88-28L230.84-13.24L239.84-28L243.80-28Z M255.16 0.24Q252.00 0.24 249.48-1.16Q246.96-2.56 245.54-5.02Q244.12-7.48 244.12-10.60L244.12-10.60Q244.12-13.72 245.54-16.18Q246.96-18.64 249.48-20.02Q252.00-21.40 255.16-21.40L255.16-21.40Q258.32-21.40 260.82-20.02Q263.32-18.64 264.74-16.18Q266.16-13.72 266.16-10.60L266.16-10.60Q266.16-7.48 264.74-5.02Q263.32-2.56 260.82-1.16Q258.32 0.24 255.16 0.24L255.16 0.24ZM255.16-3.12Q257.20-3.12 258.82-4.06Q260.44-5 261.36-6.70Q262.28-8.40 262.28-10.60L262.28-10.60Q262.28-12.80 261.36-14.50Q260.44-16.20 258.82-17.12Q257.20-18.04 255.16-18.04L255.16-18.04Q253.12-18.04 251.50-17.12Q249.88-16.20 248.94-14.50Q248.00-12.80 248.00-10.60L248.00-10.60Q248.00-8.40 248.94-6.70Q249.88-5 251.50-4.06Q253.12-3.12 255.16-3.12L255.16-3.12Z M288.60-21.20L292.44-21.20L292.44 0L288.80 0L288.80-3.20Q287.64-1.56 285.74-0.66Q283.84 0.24 281.60 0.24L281.60 0.24Q277.36 0.24 274.92-2.10Q272.48-4.44 272.48-9L272.48-9L272.48-21.20L276.32-21.20L276.32-9.44Q276.32-6.36 277.80-4.78Q279.28-3.20 282.04-3.20L282.04-3.20Q285.08-3.20 286.84-5.04Q288.60-6.88 288.60-10.24L288.60-10.24L288.60-21.20Z M304.64-17.64Q305.64-19.48 307.60-20.44Q309.56-21.40 312.36-21.40L312.36-21.40L312.36-17.68Q312.04-17.72 311.48-17.72L311.48-17.72Q308.36-17.72 306.58-15.86Q304.80-14 304.80-10.56L304.80-10.56L304.80 0L300.96 0L300.96-21.20L304.64-21.20L304.64-17.64Z M351.40-28L355.40-28L343.12 0L339.16 0L326.84-28L331.16-28L341.24-5L351.40-28Z M367.08 0.24Q363.92 0.24 361.40-1.16Q358.88-2.56 357.46-5.02Q356.04-7.48 356.04-10.60L356.04-10.60Q356.04-13.72 357.46-16.18Q358.88-18.64 361.40-20.02Q363.92-21.40 367.08-21.40L367.08-21.40Q370.24-21.40 372.74-20.02Q375.24-18.64 376.66-16.18Q378.08-13.72 378.08-10.60L378.08-10.60Q378.08-7.48 376.66-5.02Q375.24-2.56 372.74-1.16Q370.24 0.24 367.08 0.24L367.08 0.24ZM367.08-3.12Q369.12-3.12 370.74-4.06Q372.36-5 373.28-6.70Q374.20-8.40 374.20-10.60L374.20-10.60Q374.20-12.80 373.28-14.50Q372.36-16.20 370.74-17.12Q369.12-18.04 367.08-18.04L367.08-18.04Q365.04-18.04 363.42-17.12Q361.80-16.20 360.86-14.50Q359.92-12.80 359.92-10.60L359.92-10.60Q359.92-8.40 360.86-6.70Q361.80-5 363.42-4.06Q365.04-3.12 367.08-3.12L367.08-3.12Z M395.32-4L396.52-1.24Q395.68-0.52 394.44-0.14Q393.20 0.24 391.88 0.24L391.88 0.24Q388.68 0.24 386.92-1.48Q385.16-3.20 385.16-6.40L385.16-6.40L385.16-18.04L381.56-18.04L381.56-21.20L385.16-21.20L385.16-25.84L389.00-25.84L389.00-21.20L395.08-21.20L395.08-18.04L389.00-18.04L389.00-6.56Q389.00-4.84 389.86-3.92Q390.72-3 392.32-3L392.32-3Q394.08-3 395.32-4L395.32-4Z M420.80-10.48Q420.80-10.04 420.72-9.32L420.72-9.32L403.52-9.32Q403.88-6.52 405.98-4.82Q408.08-3.12 411.20-3.12L411.20-3.12Q415.00-3.12 417.32-5.68L417.32-5.68L419.44-3.20Q418.00-1.52 415.86-0.64Q413.72 0.24 411.08 0.24L411.08 0.24Q407.72 0.24 405.12-1.14Q402.52-2.52 401.10-5Q399.68-7.48 399.68-10.60L399.68-10.60Q399.68-13.68 401.06-16.16Q402.44-18.64 404.86-20.02Q407.28-21.40 410.32-21.40L410.32-21.40Q413.36-21.40 415.74-20.02Q418.12-18.64 419.46-16.16Q420.80-13.68 420.80-10.48L420.80-10.48ZM410.32-18.16Q407.56-18.16 405.70-16.48Q403.84-14.80 403.52-12.08L403.52-12.08L417.12-12.08Q416.80-14.76 414.94-16.46Q413.08-18.16 410.32-18.16L410.32-18.16Z"/></g>
</svg>
</g></svg></svg>